<svg width="1728" height="102" viewBox="0 0 1728 102" fill="none" xmlns="http://www.w3.org/2000/svg">
<rect width="1728" height="102" fill="#191C1F"/>
<path d="M786.925 48.1405C786.783 47.6803 786.587 47.2684 786.337 46.9047C786.092 46.5354 785.797 46.2201 785.45 45.9587C785.109 45.6973 784.717 45.5013 784.274 45.3706C783.831 45.2343 783.348 45.1661 782.825 45.1661C781.888 45.1661 781.053 45.4019 780.32 45.8735C779.587 46.3451 779.01 47.0382 778.589 47.953C778.175 48.8621 777.967 49.9701 777.967 51.2769C777.967 52.5951 778.175 53.7115 778.589 54.6263C779.004 55.5411 779.581 56.2371 780.32 56.7144C781.058 57.186 781.916 57.4218 782.893 57.4218C783.78 57.4218 784.547 57.2513 785.195 56.9104C785.848 56.5695 786.351 56.0865 786.703 55.4615C787.055 54.8309 787.232 54.0922 787.232 53.2456L787.947 53.3564H783.209V50.8848H790.291V52.9814C790.291 54.4757 789.973 55.7684 789.337 56.8593C788.7 57.9502 787.825 58.7911 786.712 59.382C785.598 59.9672 784.32 60.2598 782.876 60.2598C781.268 60.2598 779.857 59.899 778.641 59.1774C777.43 58.4502 776.484 57.4189 775.803 56.0837C775.126 54.7428 774.788 53.1519 774.788 51.311C774.788 49.9019 774.987 48.6434 775.385 47.5354C775.788 46.4274 776.351 45.4871 777.072 44.7144C777.794 43.936 778.641 43.3451 779.612 42.9417C780.584 42.5326 781.641 42.328 782.783 42.328C783.749 42.328 784.649 42.4701 785.484 42.7542C786.32 43.0326 787.061 43.4303 787.709 43.9473C788.362 44.4644 788.899 45.078 789.32 45.7882C789.74 46.4985 790.016 47.2826 790.146 48.1405H786.925Z" fill="#EDF2FF"/>
<path d="M799.008 60.2769C797.695 60.2769 796.562 60.0042 795.607 59.4587C794.658 58.9076 793.928 58.1292 793.417 57.1235C792.906 56.1121 792.65 54.9218 792.65 53.5524C792.65 52.2059 792.906 51.024 793.417 50.007C793.934 48.9843 794.656 48.1888 795.582 47.6206C796.508 47.0468 797.596 46.7598 798.846 46.7598C799.653 46.7598 800.414 46.8905 801.13 47.1519C801.852 47.4076 802.488 47.8053 803.039 48.3451C803.596 48.8848 804.033 49.5723 804.352 50.4076C804.67 51.2371 804.829 52.2257 804.829 53.3735V54.3195H794.099V52.2399H801.871C801.866 51.649 801.738 51.1235 801.488 50.6632C801.238 50.1973 800.888 49.8309 800.44 49.5638C799.996 49.2968 799.479 49.1632 798.888 49.1632C798.258 49.1632 797.704 49.3167 797.227 49.6235C796.749 49.9246 796.377 50.3223 796.11 50.8167C795.849 51.3053 795.715 51.8422 795.709 52.4274V54.2428C795.709 55.0042 795.849 55.6576 796.127 56.203C796.406 56.7428 796.795 57.1576 797.295 57.4473C797.795 57.7314 798.38 57.8735 799.05 57.8735C799.499 57.8735 799.906 57.811 800.269 57.686C800.633 57.5553 800.948 57.3649 801.215 57.1149C801.482 56.8649 801.684 56.5553 801.82 56.186L804.701 56.5098C804.519 57.2712 804.173 57.936 803.661 58.5042C803.156 59.0667 802.508 59.5042 801.718 59.8167C800.928 60.1235 800.025 60.2769 799.008 60.2769Z" fill="#EDF2FF"/>
<path d="M810.524 52.3507V60.0212H807.439V46.9303H810.388V49.1547H810.541C810.842 48.4218 811.322 47.8394 811.982 47.4076C812.646 46.9757 813.467 46.7598 814.445 46.7598C815.348 46.7598 816.135 46.953 816.805 47.3394C817.482 47.7257 818.004 48.2854 818.374 49.0184C818.749 49.7513 818.933 50.6405 818.928 51.686V60.0212H815.842V52.1632C815.842 51.2882 815.615 50.6036 815.16 50.1093C814.712 49.6149 814.089 49.3678 813.294 49.3678C812.754 49.3678 812.274 49.4871 811.854 49.7257C811.439 49.9587 811.112 50.2968 810.874 50.7399C810.641 51.1831 810.524 51.7201 810.524 52.3507Z" fill="#EDF2FF"/>
<path d="M827.859 60.2769C826.547 60.2769 825.413 60.0042 824.459 59.4587C823.51 58.9076 822.78 58.1292 822.268 57.1235C821.757 56.1121 821.501 54.9218 821.501 53.5524C821.501 52.2059 821.757 51.024 822.268 50.007C822.785 48.9843 823.507 48.1888 824.433 47.6206C825.359 47.0468 826.447 46.7598 827.697 46.7598C828.504 46.7598 829.266 46.8905 829.982 47.1519C830.703 47.4076 831.339 47.8053 831.891 48.3451C832.447 48.8848 832.885 49.5723 833.203 50.4076C833.521 51.2371 833.68 52.2257 833.68 53.3735V54.3195H822.95V52.2399H830.723C830.717 51.649 830.589 51.1235 830.339 50.6632C830.089 50.1973 829.74 49.8309 829.291 49.5638C828.848 49.2968 828.331 49.1632 827.74 49.1632C827.109 49.1632 826.555 49.3167 826.078 49.6235C825.601 49.9246 825.229 50.3223 824.962 50.8167C824.7 51.3053 824.567 51.8422 824.561 52.4274V54.2428C824.561 55.0042 824.7 55.6576 824.979 56.203C825.257 56.7428 825.646 57.1576 826.146 57.4473C826.646 57.7314 827.232 57.8735 827.902 57.8735C828.351 57.8735 828.757 57.811 829.121 57.686C829.484 57.5553 829.8 57.3649 830.067 57.1149C830.334 56.8649 830.535 56.5553 830.672 56.186L833.553 56.5098C833.371 57.2712 833.024 57.936 832.513 58.5042C832.007 59.0667 831.359 59.5042 830.57 59.8167C829.78 60.1235 828.876 60.2769 827.859 60.2769Z" fill="#EDF2FF"/>
<path d="M836.29 60.0212V46.9303H839.282V49.1121H839.418C839.657 48.3564 840.066 47.774 840.646 47.3649C841.231 46.9502 841.898 46.7428 842.648 46.7428C842.819 46.7428 843.009 46.7513 843.219 46.7684C843.435 46.7797 843.614 46.7996 843.756 46.828V49.6661C843.626 49.6206 843.418 49.5809 843.134 49.5468C842.856 49.507 842.586 49.4871 842.325 49.4871C841.762 49.4871 841.256 49.6093 840.808 49.8536C840.364 50.0922 840.015 50.4246 839.759 50.8507C839.504 51.2769 839.376 51.7684 839.376 52.3252V60.0212H836.29Z" fill="#EDF2FF"/>
<path d="M845.806 60.0212V46.9303H848.891V60.0212H845.806ZM847.357 45.0723C846.869 45.0723 846.448 44.9104 846.096 44.5865C845.744 44.257 845.567 43.8621 845.567 43.4019C845.567 42.936 845.744 42.5411 846.096 42.2172C846.448 41.8877 846.869 41.7229 847.357 41.7229C847.852 41.7229 848.272 41.8877 848.619 42.2172C848.971 42.5411 849.147 42.936 849.147 43.4019C849.147 43.8621 848.971 44.257 848.619 44.5865C848.272 44.9104 847.852 45.0723 847.357 45.0723Z" fill="#EDF2FF"/>
<path d="M857.774 60.2769C856.467 60.2769 855.345 59.9899 854.408 59.4161C853.476 58.8422 852.757 58.0496 852.251 57.0382C851.751 56.0212 851.501 54.8507 851.501 53.5269C851.501 52.1973 851.757 51.024 852.268 50.007C852.78 48.9843 853.501 48.1888 854.433 47.6206C855.371 47.0468 856.479 46.7598 857.757 46.7598C858.82 46.7598 859.76 46.9559 860.578 47.3479C861.402 47.7343 862.058 48.2826 862.547 48.9928C863.035 49.6973 863.314 50.5212 863.382 51.4644H860.433C860.314 50.8337 860.03 50.3081 859.581 49.8877C859.138 49.4615 858.544 49.2485 857.8 49.2485C857.169 49.2485 856.615 49.4189 856.138 49.7598C855.66 50.0951 855.288 50.578 855.021 51.2087C854.76 51.8394 854.629 52.5951 854.629 53.4757C854.629 54.3678 854.76 55.1348 855.021 55.7769C855.283 56.4132 855.649 56.9047 856.121 57.2513C856.598 57.5922 857.158 57.7627 857.8 57.7627C858.254 57.7627 858.66 57.6774 859.018 57.507C859.382 57.3309 859.686 57.078 859.93 56.7485C860.175 56.4189 860.342 56.0184 860.433 55.5468H863.382C863.308 56.4729 863.035 57.2939 862.564 58.0098C862.092 58.7201 861.45 59.2769 860.638 59.6803C859.825 60.078 858.871 60.2769 857.774 60.2769Z" fill="#EDF2FF"/>
<path d="M886.945 48.4559H883.758C883.667 47.9331 883.499 47.4701 883.255 47.0667C883.011 46.6576 882.707 46.311 882.343 46.0269C881.979 45.7428 881.565 45.5297 881.099 45.3877C880.638 45.2399 880.141 45.1661 879.607 45.1661C878.658 45.1661 877.817 45.4047 877.084 45.882C876.352 46.3536 875.778 47.0468 875.363 47.9615C874.948 48.8706 874.741 49.9814 874.741 51.2939C874.741 52.6292 874.948 53.7542 875.363 54.6689C875.783 55.578 876.357 56.2655 877.084 56.7314C877.817 57.1917 878.656 57.4218 879.599 57.4218C880.121 57.4218 880.61 57.3536 881.065 57.2172C881.525 57.0752 881.937 56.8678 882.3 56.5951C882.67 56.3223 882.979 55.9871 883.229 55.5894C883.485 55.1917 883.661 54.7371 883.758 54.2257L886.945 54.2428C886.826 55.0723 886.567 55.8507 886.17 56.578C885.778 57.3053 885.263 57.9473 884.627 58.5042C883.991 59.0553 883.246 59.4871 882.394 59.7996C881.542 60.1064 880.596 60.2598 879.556 60.2598C878.022 60.2598 876.653 59.9047 875.448 59.1945C874.244 58.4843 873.295 57.4587 872.602 56.1178C871.908 54.7769 871.562 53.1689 871.562 51.2939C871.562 49.4132 871.911 47.8053 872.61 46.4701C873.309 45.1292 874.261 44.1036 875.465 43.3934C876.67 42.6831 878.033 42.328 879.556 42.328C880.528 42.328 881.431 42.4644 882.266 42.7371C883.102 43.0098 883.846 43.4104 884.499 43.9388C885.153 44.4615 885.69 45.1036 886.11 45.8649C886.536 46.6206 886.815 47.4843 886.945 48.4559Z" fill="#EDF2FF"/>
<path d="M895.415 60.2769C894.136 60.2769 893.028 59.9956 892.091 59.4331C891.153 58.8706 890.426 58.0837 889.909 57.0723C889.398 56.061 889.142 54.8792 889.142 53.5269C889.142 52.1746 889.398 50.9899 889.909 49.9729C890.426 48.9559 891.153 48.1661 892.091 47.6036C893.028 47.0411 894.136 46.7598 895.415 46.7598C896.693 46.7598 897.801 47.0411 898.739 47.6036C899.676 48.1661 900.401 48.9559 900.912 49.9729C901.429 50.9899 901.687 52.1746 901.687 53.5269C901.687 54.8792 901.429 56.061 900.912 57.0723C900.401 58.0837 899.676 58.8706 898.739 59.4331C897.801 59.9956 896.693 60.2769 895.415 60.2769ZM895.432 57.8053C896.125 57.8053 896.705 57.6149 897.17 57.2343C897.636 56.8479 897.983 56.3309 898.21 55.6831C898.443 55.0354 898.56 54.3138 898.56 53.5184C898.56 52.7172 898.443 51.9928 898.21 51.3451C897.983 50.6917 897.636 50.1718 897.17 49.7854C896.705 49.399 896.125 49.2059 895.432 49.2059C894.722 49.2059 894.131 49.399 893.659 49.7854C893.193 50.1718 892.844 50.6917 892.611 51.3451C892.383 51.9928 892.27 52.7172 892.27 53.5184C892.27 54.3138 892.383 55.0354 892.611 55.6831C892.844 56.3309 893.193 56.8479 893.659 57.2343C894.131 57.6149 894.722 57.8053 895.432 57.8053Z" fill="#EDF2FF"/>
<path d="M912.65 54.5155V46.9303H915.735V60.0212H912.744V57.6945H912.607C912.312 58.4274 911.826 59.0269 911.15 59.4928C910.479 59.9587 909.653 60.1917 908.67 60.1917C907.812 60.1917 907.053 60.0013 906.394 59.6206C905.741 59.2343 905.229 58.6746 904.86 57.9417C904.491 57.203 904.306 56.311 904.306 55.2655V46.9303H907.391V54.7882C907.391 55.6178 907.619 56.2769 908.073 56.7655C908.528 57.2542 909.124 57.4985 909.863 57.4985C910.317 57.4985 910.758 57.3877 911.184 57.1661C911.61 56.9445 911.96 56.6149 912.232 56.1774C912.511 55.7343 912.65 55.1803 912.65 54.5155Z" fill="#EDF2FF"/>
<path d="M918.908 60.0212V46.9303H921.899V49.1121H922.035C922.274 48.3564 922.683 47.774 923.263 47.3649C923.848 46.9502 924.516 46.7428 925.266 46.7428C925.436 46.7428 925.626 46.7513 925.837 46.7684C926.053 46.7797 926.232 46.7996 926.374 46.828V49.6661C926.243 49.6206 926.035 49.5809 925.751 49.5468C925.473 49.507 925.203 49.4871 924.942 49.4871C924.379 49.4871 923.874 49.6093 923.425 49.8536C922.982 50.0922 922.632 50.4246 922.376 50.8507C922.121 51.2769 921.993 51.7684 921.993 52.3252V60.0212H918.908Z" fill="#EDF2FF"/>
<path d="M938.77 50.3905L935.957 50.6973C935.878 50.4132 935.739 50.1462 935.54 49.8962C935.347 49.6462 935.085 49.4445 934.756 49.2911C934.426 49.1377 934.023 49.061 933.545 49.061C932.903 49.061 932.364 49.2002 931.926 49.4786C931.494 49.757 931.281 50.1178 931.287 50.561C931.281 50.9417 931.42 51.2513 931.705 51.4899C931.994 51.7286 932.472 51.9246 933.136 52.078L935.369 52.5553C936.608 52.8223 937.528 53.2456 938.131 53.8252C938.739 54.4047 939.045 55.1632 939.051 56.1007C939.045 56.9246 938.804 57.6519 938.327 58.2826C937.855 58.9076 937.199 59.3962 936.358 59.7485C935.517 60.1007 934.551 60.2769 933.46 60.2769C931.858 60.2769 930.568 59.9417 929.591 59.2712C928.614 58.5951 928.031 57.6547 927.844 56.4502L930.852 56.1604C930.989 56.7513 931.278 57.1973 931.722 57.4985C932.165 57.7996 932.741 57.9502 933.452 57.9502C934.185 57.9502 934.773 57.7996 935.216 57.4985C935.665 57.1973 935.889 56.8252 935.889 56.382C935.889 56.007 935.744 55.6973 935.455 55.453C935.17 55.2087 934.727 55.0212 934.125 54.8905L931.892 54.4218C930.636 54.1604 929.707 53.7201 929.105 53.1007C928.503 52.4757 928.205 51.686 928.21 50.7314C928.205 49.9246 928.423 49.2257 928.866 48.6348C929.315 48.0382 929.937 47.578 930.733 47.2542C931.534 46.9246 932.457 46.7598 933.503 46.7598C935.037 46.7598 936.244 47.0865 937.125 47.7399C938.011 48.3934 938.56 49.2769 938.77 50.3905Z" fill="#EDF2FF"/>
<path d="M947.391 60.2769C946.078 60.2769 944.945 60.0042 943.99 59.4587C943.041 58.9076 942.311 58.1292 941.8 57.1235C941.288 56.1121 941.033 54.9218 941.033 53.5524C941.033 52.2059 941.288 51.024 941.8 50.007C942.317 48.9843 943.038 48.1888 943.964 47.6206C944.891 47.0468 945.979 46.7598 947.229 46.7598C948.035 46.7598 948.797 46.8905 949.513 47.1519C950.234 47.4076 950.871 47.8053 951.422 48.3451C951.979 48.8848 952.416 49.5723 952.734 50.4076C953.053 51.2371 953.212 52.2257 953.212 53.3735V54.3195H942.482V52.2399H950.254C950.249 51.649 950.121 51.1235 949.871 50.6632C949.621 50.1973 949.271 49.8309 948.822 49.5638C948.379 49.2968 947.862 49.1632 947.271 49.1632C946.641 49.1632 946.087 49.3167 945.609 49.6235C945.132 49.9246 944.76 50.3223 944.493 50.8167C944.232 51.3053 944.098 51.8422 944.092 52.4274V54.2428C944.092 55.0042 944.232 55.6576 944.51 56.203C944.788 56.7428 945.178 57.1576 945.678 57.4473C946.178 57.7314 946.763 57.8735 947.433 57.8735C947.882 57.8735 948.288 57.811 948.652 57.686C949.016 57.5553 949.331 57.3649 949.598 57.1149C949.865 56.8649 950.067 56.5553 950.203 56.186L953.084 56.5098C952.902 57.2712 952.555 57.936 952.044 58.5042C951.538 59.0667 950.891 59.5042 950.101 59.8167C949.311 60.1235 948.408 60.2769 947.391 60.2769Z" fill="#EDF2FF"/>
</svg>
