<svg width="1728" height="100" viewBox="0 0 1728 100" fill="none" xmlns="http://www.w3.org/2000/svg">
<mask id="path-1-inside-1_25_165" fill="white">
<path d="M0 0H1728V100H0V0Z"/>
</mask>
<path d="M0 0H1728V100H0V0Z" fill="#191C1F"/>
<path d="M1728 98H0V102H1728V98Z" fill="#4C6EF5" mask="url(#path-1-inside-1_25_165)"/>
<path d="M249.604 46.7948C249.445 46.2789 249.225 45.8172 248.945 45.4096C248.671 44.9956 248.34 44.6421 247.951 44.3492C247.569 44.0562 247.13 43.8365 246.633 43.69C246.136 43.5371 245.595 43.4607 245.009 43.4607C243.958 43.4607 243.022 43.725 242.2 44.2536C241.379 44.7823 240.732 45.5593 240.261 46.5847C239.796 47.6037 239.563 48.8456 239.563 50.3105C239.563 51.7881 239.796 53.0396 240.261 54.065C240.726 55.0904 241.372 55.8705 242.2 56.4055C243.028 56.9342 243.99 57.1985 245.085 57.1985C246.079 57.1985 246.939 57.0074 247.665 56.6253C248.397 56.2431 248.961 55.7018 249.356 55.0012C249.75 54.2942 249.948 53.4663 249.948 52.5173L250.75 52.6415H245.439V49.871H253.378V52.2212C253.378 53.8962 253.021 55.3451 252.308 56.5679C251.594 57.7908 250.613 58.7334 249.365 59.3957C248.117 60.0517 246.684 60.3797 245.066 60.3797C243.264 60.3797 241.681 59.9753 240.318 59.1665C238.962 58.3512 237.901 57.1953 237.137 55.6986C236.379 54.1955 236 52.4122 236 50.3487C236 48.7692 236.223 47.3585 236.669 46.1165C237.121 44.8746 237.751 43.8205 238.56 42.9544C239.369 42.0818 240.318 41.4195 241.407 40.9673C242.496 40.5087 243.681 40.2794 244.961 40.2794C246.044 40.2794 247.053 40.4386 247.989 40.7571C248.926 41.0692 249.757 41.515 250.483 42.0946C251.215 42.6741 251.817 43.362 252.289 44.1581C252.76 44.9542 253.069 45.8331 253.215 46.7948H249.604Z" fill="#F8F9FA"/>
<path d="M263.148 60.3988C261.677 60.3988 260.406 60.0931 259.337 59.4817C258.273 58.8639 257.455 57.9914 256.881 56.8641C256.308 55.7304 256.021 54.3961 256.021 52.8612C256.021 51.3518 256.308 50.0271 256.881 48.887C257.461 47.7406 258.27 46.849 259.308 46.2121C260.346 45.5688 261.566 45.2472 262.967 45.2472C263.871 45.2472 264.725 45.3937 265.527 45.6866C266.336 45.9732 267.049 46.4191 267.667 47.0241C268.291 47.6292 268.782 48.3998 269.138 49.336C269.495 50.2659 269.673 51.3741 269.673 52.6606V53.721H257.646V51.39H266.358C266.352 50.7276 266.209 50.1385 265.928 49.6226C265.648 49.1004 265.256 48.6896 264.753 48.3902C264.257 48.0909 263.677 47.9412 263.015 47.9412C262.308 47.9412 261.687 48.1132 261.152 48.4571C260.617 48.7947 260.2 49.2405 259.9 49.7946C259.607 50.3423 259.458 50.9442 259.451 51.6002V53.6351C259.451 54.4885 259.607 55.2209 259.919 55.8323C260.231 56.4374 260.668 56.9023 261.228 57.2271C261.789 57.5456 262.445 57.7048 263.196 57.7048C263.699 57.7048 264.155 57.6347 264.562 57.4946C264.97 57.3481 265.323 57.1348 265.623 56.8545C265.922 56.5743 266.148 56.2272 266.301 55.8132L269.53 56.1763C269.326 57.0297 268.938 57.7748 268.364 58.4117C267.798 59.0423 267.072 59.5327 266.186 59.883C265.301 60.2269 264.288 60.3988 263.148 60.3988Z" fill="#F8F9FA"/>
<path d="M276.057 51.5142V60.1122H272.599V45.4383H275.904V47.9317H276.076C276.414 47.1101 276.952 46.4573 277.691 45.9732C278.436 45.4892 279.356 45.2472 280.452 45.2472C281.465 45.2472 282.347 45.4637 283.098 45.8968C283.856 46.3299 284.442 46.9572 284.856 47.7788C285.276 48.6004 285.483 49.5972 285.477 50.769V60.1122H282.019V51.304C282.019 50.3232 281.764 49.5558 281.254 49.0017C280.751 48.4476 280.054 48.1705 279.162 48.1705C278.557 48.1705 278.019 48.3043 277.548 48.5718C277.083 48.8329 276.717 49.2118 276.449 49.7086C276.188 50.2054 276.057 50.8073 276.057 51.5142Z" fill="#F8F9FA"/>
<path d="M295.489 60.3988C294.018 60.3988 292.747 60.0931 291.677 59.4817C290.613 58.8639 289.795 57.9914 289.222 56.8641C288.649 55.7304 288.362 54.3961 288.362 52.8612C288.362 51.3518 288.649 50.0271 289.222 48.887C289.801 47.7406 290.61 46.849 291.648 46.2121C292.687 45.5688 293.906 45.2472 295.307 45.2472C296.212 45.2472 297.065 45.3937 297.868 45.6866C298.677 45.9732 299.39 46.4191 300.008 47.0241C300.632 47.6292 301.122 48.3998 301.479 49.336C301.836 50.2659 302.014 51.3741 302.014 52.6606V53.721H289.986V51.39H298.699C298.692 50.7276 298.549 50.1385 298.269 49.6226C297.989 49.1004 297.597 48.6896 297.094 48.3902C296.597 48.0909 296.018 47.9412 295.355 47.9412C294.648 47.9412 294.027 48.1132 293.492 48.4571C292.957 48.7947 292.54 49.2405 292.241 49.7946C291.948 50.3423 291.798 50.9442 291.792 51.6002V53.6351C291.792 54.4885 291.948 55.2209 292.26 55.8323C292.572 56.4374 293.008 56.9023 293.569 57.2271C294.129 57.5456 294.785 57.7048 295.537 57.7048C296.04 57.7048 296.495 57.6347 296.903 57.4946C297.31 57.3481 297.664 57.1348 297.963 56.8545C298.263 56.5743 298.489 56.2272 298.642 55.8132L301.871 56.1763C301.667 57.0297 301.278 57.7748 300.705 58.4117C300.138 59.0423 299.412 59.5327 298.527 59.883C297.642 60.2269 296.629 60.3988 295.489 60.3988Z" fill="#F8F9FA"/>
<path d="M304.94 60.1122V45.4383H308.293V47.8839H308.446C308.713 47.0369 309.172 46.384 309.821 45.9255C310.477 45.4605 311.226 45.2281 312.066 45.2281C312.257 45.2281 312.471 45.2376 312.706 45.2567C312.948 45.2695 313.149 45.2918 313.308 45.3236V48.5049C313.162 48.4539 312.929 48.4094 312.611 48.3711C312.299 48.3266 311.996 48.3043 311.703 48.3043C311.073 48.3043 310.506 48.4412 310.003 48.7151C309.506 48.9826 309.114 49.3551 308.828 49.8328C308.541 50.3105 308.398 50.8614 308.398 51.4855V60.1122H304.94Z" fill="#F8F9FA"/>
<path d="M315.606 60.1122V45.4383H319.064V60.1122H315.606ZM317.345 43.3556C316.797 43.3556 316.326 43.1741 315.931 42.8111C315.536 42.4417 315.338 41.999 315.338 41.4832C315.338 40.9609 315.536 40.5183 315.931 40.1552C316.326 39.7858 316.797 39.6011 317.345 39.6011C317.899 39.6011 318.37 39.7858 318.759 40.1552C319.153 40.5183 319.351 40.9609 319.351 41.4832C319.351 41.999 319.153 42.4417 318.759 42.8111C318.37 43.1741 317.899 43.3556 317.345 43.3556Z" fill="#F8F9FA"/>
<path d="M329.021 60.3988C327.556 60.3988 326.299 60.0772 325.248 59.434C324.203 58.7907 323.397 57.9022 322.831 56.7686C322.27 55.6285 321.99 54.3165 321.99 52.8326C321.99 51.3422 322.277 50.0271 322.85 48.887C323.423 47.7406 324.232 46.849 325.276 46.2121C326.327 45.5688 327.569 45.2472 329.002 45.2472C330.193 45.2472 331.247 45.4669 332.164 45.9064C333.088 46.3395 333.823 46.9541 334.371 47.7502C334.919 48.5399 335.231 49.4634 335.307 50.5206H332.002C331.868 49.8137 331.55 49.2246 331.047 48.7533C330.55 48.2756 329.884 48.0368 329.05 48.0368C328.343 48.0368 327.722 48.2278 327.187 48.61C326.652 48.9857 326.235 49.5271 325.936 50.234C325.643 50.941 325.496 51.7881 325.496 52.7752C325.496 53.7752 325.643 54.635 325.936 55.3547C326.228 56.068 326.639 56.6189 327.168 57.0074C327.703 57.3895 328.33 57.5806 329.05 57.5806C329.559 57.5806 330.015 57.4851 330.416 57.294C330.824 57.0966 331.164 56.8131 331.438 56.4437C331.712 56.0743 331.9 55.6253 332.002 55.0967H335.307C335.225 56.1349 334.919 57.0552 334.39 57.8576C333.862 58.6538 333.142 59.2779 332.231 59.7301C331.32 60.1759 330.25 60.3988 329.021 60.3988Z" fill="#F8F9FA"/>
<path d="M361.72 47.1483H358.147C358.045 46.5624 357.857 46.0433 357.583 45.5911C357.31 45.1325 356.969 44.744 356.561 44.4256C356.154 44.1071 355.689 43.8683 355.166 43.7091C354.651 43.5435 354.093 43.4607 353.495 43.4607C352.431 43.4607 351.488 43.7282 350.667 44.2632C349.845 44.7918 349.202 45.5688 348.737 46.5942C348.272 47.6132 348.04 48.8584 348.04 50.3296C348.04 51.8263 348.272 53.0873 348.737 54.1127C349.208 55.1317 349.852 55.9024 350.667 56.4246C351.488 56.9405 352.428 57.1985 353.485 57.1985C354.071 57.1985 354.619 57.122 355.128 56.9692C355.644 56.81 356.106 56.5775 356.513 56.2718C356.927 55.9661 357.275 55.5903 357.555 55.1445C357.841 54.6987 358.039 54.1891 358.147 53.6159L361.72 53.6351C361.586 54.5649 361.297 55.4375 360.851 56.2527C360.411 57.0679 359.835 57.7876 359.122 58.4117C358.408 59.0295 357.574 59.5136 356.619 59.8639C355.663 60.2078 354.603 60.3797 353.437 60.3797C351.718 60.3797 350.183 59.9817 348.833 59.1856C347.482 58.3895 346.419 57.2399 345.642 55.7368C344.865 54.2337 344.476 52.4313 344.476 50.3296C344.476 48.2215 344.868 46.4191 345.651 44.9224C346.435 43.4193 347.501 42.2697 348.852 41.4736C350.202 40.6775 351.73 40.2794 353.437 40.2794C354.526 40.2794 355.539 40.4323 356.475 40.738C357.412 41.0437 358.246 41.4927 358.978 42.085C359.711 42.671 360.313 43.3906 360.784 44.2441C361.262 45.0911 361.574 46.0592 361.72 47.1483Z" fill="#F8F9FA"/>
<path d="M371.214 60.3988C369.781 60.3988 368.539 60.0836 367.488 59.4531C366.437 58.8225 365.622 57.9404 365.042 56.8068C364.469 55.6731 364.182 54.3484 364.182 52.8326C364.182 51.3168 364.469 49.9888 365.042 48.8488C365.622 47.7088 366.437 46.8235 367.488 46.193C368.539 45.5624 369.781 45.2472 371.214 45.2472C372.647 45.2472 373.889 45.5624 374.94 46.193C375.99 46.8235 376.802 47.7088 377.376 48.8488C377.955 49.9888 378.245 51.3168 378.245 52.8326C378.245 54.3484 377.955 55.6731 377.376 56.8068C376.802 57.9404 375.99 58.8225 374.94 59.4531C373.889 60.0836 372.647 60.3988 371.214 60.3988ZM371.233 57.6284C372.01 57.6284 372.66 57.415 373.182 56.9883C373.704 56.5552 374.092 55.9756 374.347 55.2496C374.608 54.5235 374.739 53.7147 374.739 52.823C374.739 51.925 374.608 51.113 374.347 50.3869C374.092 49.6545 373.704 49.0717 373.182 48.6386C372.66 48.2055 372.01 47.989 371.233 47.989C370.437 47.989 369.774 48.2055 369.246 48.6386C368.724 49.0717 368.332 49.6545 368.071 50.3869C367.816 51.113 367.689 51.925 367.689 52.823C367.689 53.7147 367.816 54.5235 368.071 55.2496C368.332 55.9756 368.724 56.5552 369.246 56.9883C369.774 57.415 370.437 57.6284 371.233 57.6284Z" fill="#F8F9FA"/>
<path d="M390.533 53.9408V45.4383H393.991V60.1122H390.638V57.5042H390.485C390.154 58.3258 389.61 58.9977 388.852 59.5199C388.1 60.0422 387.173 60.3033 386.072 60.3033C385.11 60.3033 384.26 60.09 383.521 59.6632C382.788 59.2301 382.215 58.6028 381.801 57.7812C381.387 56.9533 381.18 55.9533 381.18 54.7815V45.4383H384.639V54.2465C384.639 55.1763 384.893 55.9151 385.403 56.4629C385.912 57.0106 386.581 57.2844 387.409 57.2844C387.919 57.2844 388.412 57.1602 388.89 56.9119C389.368 56.6635 389.759 56.2941 390.065 55.8037C390.377 55.3069 390.533 54.6859 390.533 53.9408Z" fill="#F8F9FA"/>
<path d="M397.548 60.1122V45.4383H400.901V47.8839H401.054C401.321 47.0369 401.78 46.384 402.429 45.9255C403.085 45.4605 403.834 45.2281 404.674 45.2281C404.866 45.2281 405.079 45.2376 405.315 45.2567C405.557 45.2695 405.757 45.2918 405.916 45.3236V48.5049C405.77 48.4539 405.537 48.4094 405.219 48.3711C404.907 48.3266 404.604 48.3043 404.311 48.3043C403.681 48.3043 403.114 48.4412 402.611 48.7151C402.114 48.9826 401.722 49.3551 401.436 49.8328C401.149 50.3105 401.006 50.8614 401.006 51.4855V60.1122H397.548Z" fill="#F8F9FA"/>
<path d="M419.812 49.3169L416.659 49.6608C416.57 49.3424 416.414 49.0431 416.191 48.7628C415.975 48.4826 415.682 48.2565 415.312 48.0845C414.943 47.9126 414.491 47.8266 413.956 47.8266C413.236 47.8266 412.631 47.9826 412.14 48.2947C411.656 48.6068 411.418 49.0112 411.424 49.508C411.418 49.9347 411.574 50.2818 411.892 50.5493C412.217 50.8168 412.752 51.0365 413.497 51.2085L416 51.7435C417.388 52.0428 418.42 52.5173 419.095 53.1669C419.777 53.8166 420.121 54.6668 420.127 55.7177C420.121 56.6412 419.85 57.4564 419.315 58.1634C418.786 58.8639 418.051 59.4117 417.108 59.8065C416.166 60.2014 415.083 60.3988 413.86 60.3988C412.064 60.3988 410.618 60.0231 409.523 59.2715C408.427 58.5136 407.775 57.4596 407.564 56.1094L410.937 55.7846C411.09 56.4469 411.414 56.9469 411.911 57.2844C412.408 57.622 413.054 57.7908 413.85 57.7908C414.672 57.7908 415.331 57.622 415.828 57.2844C416.331 56.9469 416.583 56.5297 416.583 56.0329C416.583 55.6126 416.42 55.2655 416.096 54.9916C415.777 54.7178 415.28 54.5076 414.605 54.3611L412.102 53.8357C410.695 53.5427 409.653 53.0491 408.978 52.3549C408.303 51.6543 407.969 50.769 407.975 49.6991C407.969 48.7947 408.214 48.0113 408.711 47.3489C409.214 46.6802 409.911 46.1643 410.803 45.8013C411.701 45.4319 412.736 45.2472 413.908 45.2472C415.627 45.2472 416.981 45.6134 417.968 46.3458C418.962 47.0782 419.576 48.0686 419.812 49.3169Z" fill="#F8F9FA"/>
<path d="M429.475 60.3988C428.004 60.3988 426.733 60.0931 425.663 59.4817C424.6 58.8639 423.781 57.9914 423.208 56.8641C422.635 55.7304 422.348 54.3961 422.348 52.8612C422.348 51.3518 422.635 50.0271 423.208 48.887C423.788 47.7406 424.596 46.849 425.635 46.2121C426.673 45.5688 427.892 45.2472 429.294 45.2472C430.198 45.2472 431.051 45.3937 431.854 45.6866C432.663 45.9732 433.376 46.4191 433.994 47.0241C434.618 47.6292 435.108 48.3998 435.465 49.336C435.822 50.2659 436 51.3741 436 52.6606V53.721H423.972V51.39H432.685C432.679 50.7276 432.535 50.1385 432.255 49.6226C431.975 49.1004 431.583 48.6896 431.08 48.3902C430.583 48.0909 430.004 47.9412 429.341 47.9412C428.634 47.9412 428.013 48.1132 427.478 48.4571C426.943 48.7947 426.526 49.2405 426.227 49.7946C425.934 50.3423 425.784 50.9442 425.778 51.6002V53.6351C425.778 54.4885 425.934 55.2209 426.246 55.8323C426.558 56.4374 426.994 56.9023 427.555 57.2271C428.115 57.5456 428.771 57.7048 429.523 57.7048C430.026 57.7048 430.481 57.6347 430.889 57.4946C431.297 57.3481 431.65 57.1348 431.949 56.8545C432.249 56.5743 432.475 56.2272 432.628 55.8132L435.857 56.1763C435.653 57.0297 435.264 57.7748 434.691 58.4117C434.124 59.0423 433.398 59.5327 432.513 59.883C431.628 60.2269 430.615 60.3988 429.475 60.3988Z" fill="#F8F9FA"/>
<rect x="1226.5" y="20.5" width="265" height="59" stroke="#F8F9FA"/>
<path d="M1259.37 56V44.3636H1266.94V46.1307H1261.48V49.2898H1266.55V51.0568H1261.48V54.233H1266.99V56H1259.37ZM1271.06 50.8864V56H1269V47.2727H1270.97V48.7557H1271.07C1271.27 48.267 1271.59 47.8788 1272.03 47.5909C1272.47 47.303 1273.02 47.1591 1273.67 47.1591C1274.27 47.1591 1274.8 47.2879 1275.25 47.5455C1275.7 47.803 1276.05 48.1761 1276.29 48.6648C1276.54 49.1534 1276.67 49.7462 1276.66 50.4432V56H1274.6V50.7614C1274.6 50.178 1274.45 49.7216 1274.15 49.392C1273.85 49.0625 1273.44 48.8977 1272.91 48.8977C1272.55 48.8977 1272.23 48.9773 1271.95 49.1364C1271.67 49.2917 1271.45 49.517 1271.29 49.8125C1271.14 50.108 1271.06 50.4659 1271.06 50.8864ZM1283.11 47.2727V48.8636H1278.09V47.2727H1283.11ZM1279.33 45.1818H1281.39V53.375C1281.39 53.6515 1281.43 53.8636 1281.51 54.0114C1281.6 54.1553 1281.71 54.2538 1281.85 54.3068C1281.99 54.3598 1282.15 54.3864 1282.32 54.3864C1282.45 54.3864 1282.57 54.3769 1282.67 54.358C1282.78 54.339 1282.87 54.322 1282.92 54.3068L1283.27 55.9148C1283.16 55.9527 1283 55.9943 1282.8 56.0398C1282.6 56.0852 1282.35 56.1117 1282.06 56.1193C1281.54 56.1345 1281.08 56.0568 1280.67 55.8864C1280.25 55.7121 1279.93 55.4432 1279.68 55.0795C1279.45 54.7159 1279.33 54.2614 1279.33 53.7159V45.1818ZM1284.83 56V47.2727H1286.82V48.7273H1286.92C1287.07 48.2235 1287.35 47.8352 1287.73 47.5625C1288.12 47.286 1288.57 47.1477 1289.07 47.1477C1289.18 47.1477 1289.31 47.1534 1289.45 47.1648C1289.59 47.1723 1289.71 47.1856 1289.81 47.2045V49.0966C1289.72 49.0663 1289.58 49.0398 1289.39 49.017C1289.21 48.9905 1289.03 48.9773 1288.85 48.9773C1288.48 48.9773 1288.14 49.0587 1287.84 49.2216C1287.55 49.3807 1287.31 49.6023 1287.14 49.8864C1286.97 50.1705 1286.89 50.4981 1286.89 50.8693V56H1284.83ZM1293.53 56.1761C1292.98 56.1761 1292.48 56.0777 1292.03 55.8807C1291.6 55.6799 1291.25 55.3845 1290.99 54.9943C1290.74 54.6042 1290.61 54.1231 1290.61 53.5511C1290.61 53.0587 1290.7 52.6515 1290.88 52.3295C1291.06 52.0076 1291.31 51.75 1291.63 51.5568C1291.94 51.3636 1292.29 51.2178 1292.69 51.1193C1293.09 51.017 1293.5 50.9432 1293.92 50.8977C1294.43 50.8447 1294.85 50.7973 1295.17 50.7557C1295.48 50.7102 1295.71 50.642 1295.86 50.5511C1296.01 50.4564 1296.08 50.3106 1296.08 50.1136V50.0795C1296.08 49.6515 1295.95 49.3201 1295.7 49.0852C1295.45 48.8504 1295.08 48.733 1294.6 48.733C1294.1 48.733 1293.7 48.8428 1293.4 49.0625C1293.11 49.2822 1292.92 49.5417 1292.81 49.8409L1290.89 49.5682C1291.04 49.0379 1291.29 48.5947 1291.64 48.2386C1291.99 47.8788 1292.42 47.6098 1292.92 47.4318C1293.42 47.25 1293.98 47.1591 1294.59 47.1591C1295.01 47.1591 1295.43 47.2083 1295.85 47.3068C1296.26 47.4053 1296.64 47.5682 1296.99 47.7955C1297.33 48.0189 1297.61 48.3239 1297.82 48.7102C1298.03 49.0966 1298.14 49.5795 1298.14 50.1591V56H1296.16V54.8011H1296.09C1295.97 55.0436 1295.79 55.2708 1295.56 55.483C1295.34 55.6913 1295.06 55.8598 1294.72 55.9886C1294.38 56.1136 1293.98 56.1761 1293.53 56.1761ZM1294.06 54.6648C1294.48 54.6648 1294.83 54.5833 1295.14 54.4205C1295.44 54.2538 1295.67 54.0341 1295.84 53.7614C1296 53.4886 1296.09 53.1913 1296.09 52.8693V51.8409C1296.02 51.8939 1295.91 51.9432 1295.76 51.9886C1295.6 52.0341 1295.43 52.0739 1295.25 52.108C1295.06 52.142 1294.87 52.1723 1294.68 52.1989C1294.5 52.2254 1294.34 52.2481 1294.2 52.267C1293.89 52.3087 1293.62 52.3769 1293.38 52.4716C1293.13 52.5663 1292.94 52.6989 1292.8 52.8693C1292.66 53.036 1292.59 53.2519 1292.59 53.517C1292.59 53.8958 1292.73 54.1818 1293.01 54.375C1293.28 54.5682 1293.64 54.6648 1294.06 54.6648ZM1300.21 56V47.2727H1302.2V48.7273H1302.29C1302.45 48.2235 1302.72 47.8352 1303.11 47.5625C1303.5 47.286 1303.94 47.1477 1304.44 47.1477C1304.56 47.1477 1304.68 47.1534 1304.82 47.1648C1304.97 47.1723 1305.09 47.1856 1305.18 47.2045V49.0966C1305.1 49.0663 1304.96 49.0398 1304.77 49.017C1304.58 48.9905 1304.4 48.9773 1304.23 48.9773C1303.85 48.9773 1303.52 49.0587 1303.22 49.2216C1302.92 49.3807 1302.69 49.6023 1302.52 49.8864C1302.35 50.1705 1302.26 50.4981 1302.26 50.8693V56H1300.21ZM1310.52 59.2727V47.2727H1312.54V48.7159H1312.66C1312.77 48.5038 1312.92 48.2784 1313.11 48.0398C1313.3 47.7973 1313.56 47.5909 1313.89 47.4205C1314.22 47.2462 1314.64 47.1591 1315.15 47.1591C1315.83 47.1591 1316.44 47.3314 1316.98 47.6761C1317.52 48.017 1317.96 48.5227 1318.27 49.1932C1318.6 49.8598 1318.76 50.678 1318.76 51.6477C1318.76 52.6061 1318.6 53.4205 1318.28 54.0909C1317.97 54.7614 1317.54 55.2727 1317 55.625C1316.46 55.9773 1315.85 56.1534 1315.16 56.1534C1314.66 56.1534 1314.25 56.0701 1313.92 55.9034C1313.59 55.7367 1313.32 55.536 1313.12 55.3011C1312.92 55.0625 1312.77 54.8371 1312.66 54.625H1312.57V59.2727H1310.52ZM1312.53 51.6364C1312.53 52.2008 1312.61 52.6951 1312.77 53.1193C1312.94 53.5436 1313.17 53.875 1313.47 54.1136C1313.78 54.3485 1314.15 54.4659 1314.59 54.4659C1315.04 54.4659 1315.42 54.3447 1315.73 54.1023C1316.03 53.8561 1316.27 53.5208 1316.42 53.0966C1316.58 52.6686 1316.66 52.1818 1316.66 51.6364C1316.66 51.0947 1316.58 50.6136 1316.43 50.1932C1316.27 49.7727 1316.04 49.4432 1315.73 49.2045C1315.43 48.9659 1315.04 48.8466 1314.59 48.8466C1314.15 48.8466 1313.77 48.9621 1313.47 49.1932C1313.16 49.4242 1312.93 49.7481 1312.77 50.1648C1312.61 50.5814 1312.53 51.072 1312.53 51.6364ZM1323.03 56.1761C1322.48 56.1761 1321.98 56.0777 1321.53 55.8807C1321.1 55.6799 1320.75 55.3845 1320.49 54.9943C1320.24 54.6042 1320.11 54.1231 1320.11 53.5511C1320.11 53.0587 1320.2 52.6515 1320.38 52.3295C1320.56 52.0076 1320.81 51.75 1321.13 51.5568C1321.44 51.3636 1321.79 51.2178 1322.19 51.1193C1322.59 51.017 1323 50.9432 1323.42 50.8977C1323.93 50.8447 1324.35 50.7973 1324.67 50.7557C1324.98 50.7102 1325.21 50.642 1325.36 50.5511C1325.51 50.4564 1325.58 50.3106 1325.58 50.1136V50.0795C1325.58 49.6515 1325.45 49.3201 1325.2 49.0852C1324.95 48.8504 1324.58 48.733 1324.1 48.733C1323.6 48.733 1323.2 48.8428 1322.9 49.0625C1322.61 49.2822 1322.42 49.5417 1322.31 49.8409L1320.39 49.5682C1320.54 49.0379 1320.79 48.5947 1321.14 48.2386C1321.49 47.8788 1321.92 47.6098 1322.42 47.4318C1322.92 47.25 1323.48 47.1591 1324.09 47.1591C1324.51 47.1591 1324.93 47.2083 1325.35 47.3068C1325.76 47.4053 1326.14 47.5682 1326.49 47.7955C1326.83 48.0189 1327.11 48.3239 1327.32 48.7102C1327.53 49.0966 1327.64 49.5795 1327.64 50.1591V56H1325.66V54.8011H1325.59C1325.47 55.0436 1325.29 55.2708 1325.06 55.483C1324.84 55.6913 1324.56 55.8598 1324.22 55.9886C1323.88 56.1136 1323.48 56.1761 1323.03 56.1761ZM1323.56 54.6648C1323.98 54.6648 1324.33 54.5833 1324.64 54.4205C1324.94 54.2538 1325.17 54.0341 1325.34 53.7614C1325.5 53.4886 1325.59 53.1913 1325.59 52.8693V51.8409C1325.52 51.8939 1325.41 51.9432 1325.26 51.9886C1325.1 52.0341 1324.93 52.0739 1324.75 52.108C1324.56 52.142 1324.37 52.1723 1324.18 52.1989C1324 52.2254 1323.84 52.2481 1323.7 52.267C1323.39 52.3087 1323.12 52.3769 1322.88 52.4716C1322.63 52.5663 1322.44 52.6989 1322.3 52.8693C1322.16 53.036 1322.09 53.2519 1322.09 53.517C1322.09 53.8958 1322.23 54.1818 1322.51 54.375C1322.78 54.5682 1323.14 54.6648 1323.56 54.6648ZM1329.71 56V47.2727H1331.7V48.7273H1331.79C1331.95 48.2235 1332.22 47.8352 1332.61 47.5625C1333 47.286 1333.44 47.1477 1333.94 47.1477C1334.06 47.1477 1334.18 47.1534 1334.32 47.1648C1334.47 47.1723 1334.59 47.1856 1334.68 47.2045V49.0966C1334.6 49.0663 1334.46 49.0398 1334.27 49.017C1334.08 48.9905 1333.9 48.9773 1333.73 48.9773C1333.35 48.9773 1333.02 49.0587 1332.72 49.2216C1332.42 49.3807 1332.19 49.6023 1332.02 49.8864C1331.85 50.1705 1331.76 50.4981 1331.76 50.8693V56H1329.71ZM1338.4 56.1761C1337.85 56.1761 1337.35 56.0777 1336.91 55.8807C1336.47 55.6799 1336.12 55.3845 1335.86 54.9943C1335.61 54.6042 1335.48 54.1231 1335.48 53.5511C1335.48 53.0587 1335.57 52.6515 1335.76 52.3295C1335.94 52.0076 1336.19 51.75 1336.5 51.5568C1336.82 51.3636 1337.17 51.2178 1337.56 51.1193C1337.96 51.017 1338.37 50.9432 1338.8 50.8977C1339.31 50.8447 1339.72 50.7973 1340.04 50.7557C1340.36 50.7102 1340.59 50.642 1340.73 50.5511C1340.88 50.4564 1340.96 50.3106 1340.96 50.1136V50.0795C1340.96 49.6515 1340.83 49.3201 1340.57 49.0852C1340.32 48.8504 1339.96 48.733 1339.48 48.733C1338.97 48.733 1338.57 48.8428 1338.28 49.0625C1337.99 49.2822 1337.79 49.5417 1337.69 49.8409L1335.77 49.5682C1335.92 49.0379 1336.17 48.5947 1336.52 48.2386C1336.87 47.8788 1337.29 47.6098 1337.8 47.4318C1338.3 47.25 1338.86 47.1591 1339.47 47.1591C1339.89 47.1591 1340.31 47.2083 1340.72 47.3068C1341.14 47.4053 1341.52 47.5682 1341.86 47.7955C1342.21 48.0189 1342.49 48.3239 1342.69 48.7102C1342.91 49.0966 1343.01 49.5795 1343.01 50.1591V56H1341.03V54.8011H1340.97C1340.84 55.0436 1340.67 55.2708 1340.44 55.483C1340.21 55.6913 1339.93 55.8598 1339.59 55.9886C1339.25 56.1136 1338.86 56.1761 1338.4 56.1761ZM1338.94 54.6648C1339.35 54.6648 1339.71 54.5833 1340.01 54.4205C1340.32 54.2538 1340.55 54.0341 1340.71 53.7614C1340.88 53.4886 1340.96 53.1913 1340.96 52.8693V51.8409C1340.9 51.8939 1340.79 51.9432 1340.63 51.9886C1340.48 52.0341 1340.31 52.0739 1340.12 52.108C1339.93 52.142 1339.74 52.1723 1339.56 52.1989C1339.37 52.2254 1339.21 52.2481 1339.07 52.267C1338.77 52.3087 1338.49 52.3769 1338.25 52.4716C1338.01 52.5663 1337.82 52.6989 1337.68 52.8693C1337.54 53.036 1337.47 53.2519 1337.47 53.517C1337.47 53.8958 1337.6 54.1818 1337.88 54.375C1338.16 54.5682 1338.51 54.6648 1338.94 54.6648ZM1349.05 59.2727V47.2727H1351.07V48.7159H1351.19C1351.3 48.5038 1351.45 48.2784 1351.64 48.0398C1351.83 47.7973 1352.09 47.5909 1352.42 47.4205C1352.75 47.2462 1353.17 47.1591 1353.69 47.1591C1354.36 47.1591 1354.97 47.3314 1355.51 47.6761C1356.05 48.017 1356.49 48.5227 1356.8 49.1932C1357.13 49.8598 1357.29 50.678 1357.29 51.6477C1357.29 52.6061 1357.13 53.4205 1356.82 54.0909C1356.5 54.7614 1356.07 55.2727 1355.53 55.625C1354.99 55.9773 1354.38 56.1534 1353.69 56.1534C1353.19 56.1534 1352.78 56.0701 1352.45 55.9034C1352.12 55.7367 1351.85 55.536 1351.65 55.3011C1351.45 55.0625 1351.3 54.8371 1351.19 54.625H1351.11V59.2727H1349.05ZM1351.07 51.6364C1351.07 52.2008 1351.15 52.6951 1351.3 53.1193C1351.47 53.5436 1351.7 53.875 1352 54.1136C1352.31 54.3485 1352.68 54.4659 1353.12 54.4659C1353.57 54.4659 1353.95 54.3447 1354.26 54.1023C1354.57 53.8561 1354.8 53.5208 1354.95 53.0966C1355.11 52.6686 1355.19 52.1818 1355.19 51.6364C1355.19 51.0947 1355.11 50.6136 1354.96 50.1932C1354.8 49.7727 1354.57 49.4432 1354.26 49.2045C1353.96 48.9659 1353.58 48.8466 1353.12 48.8466C1352.68 48.8466 1352.3 48.9621 1352 49.1932C1351.69 49.4242 1351.46 49.7481 1351.3 50.1648C1351.14 50.5814 1351.07 51.072 1351.07 51.6364ZM1359.05 56V47.2727H1361.04V48.7273H1361.13C1361.29 48.2235 1361.57 47.8352 1361.95 47.5625C1362.34 47.286 1362.79 47.1477 1363.29 47.1477C1363.4 47.1477 1363.53 47.1534 1363.67 47.1648C1363.81 47.1723 1363.93 47.1856 1364.03 47.2045V49.0966C1363.94 49.0663 1363.8 49.0398 1363.61 49.017C1363.43 48.9905 1363.25 48.9773 1363.07 48.9773C1362.7 48.9773 1362.36 49.0587 1362.06 49.2216C1361.76 49.3807 1361.53 49.6023 1361.36 49.8864C1361.19 50.1705 1361.11 50.4981 1361.11 50.8693V56H1359.05ZM1368.84 56.1705C1367.99 56.1705 1367.25 55.983 1366.62 55.608C1366 55.233 1365.51 54.7083 1365.17 54.0341C1364.83 53.3598 1364.66 52.572 1364.66 51.6705C1364.66 50.7689 1364.83 49.9792 1365.17 49.3011C1365.51 48.6231 1366 48.0966 1366.62 47.7216C1367.25 47.3466 1367.99 47.1591 1368.84 47.1591C1369.69 47.1591 1370.43 47.3466 1371.06 47.7216C1371.68 48.0966 1372.16 48.6231 1372.5 49.3011C1372.85 49.9792 1373.02 50.7689 1373.02 51.6705C1373.02 52.572 1372.85 53.3598 1372.5 54.0341C1372.16 54.7083 1371.68 55.233 1371.06 55.608C1370.43 55.983 1369.69 56.1705 1368.84 56.1705ZM1368.85 54.5227C1369.31 54.5227 1369.7 54.3958 1370.01 54.142C1370.32 53.8845 1370.55 53.5398 1370.7 53.108C1370.86 52.6761 1370.94 52.1951 1370.94 51.6648C1370.94 51.1307 1370.86 50.6477 1370.7 50.2159C1370.55 49.7803 1370.32 49.4337 1370.01 49.1761C1369.7 48.9186 1369.31 48.7898 1368.85 48.7898C1368.38 48.7898 1367.98 48.9186 1367.67 49.1761C1367.36 49.4337 1367.13 49.7803 1366.97 50.2159C1366.82 50.6477 1366.74 51.1307 1366.74 51.6648C1366.74 52.1951 1366.82 52.6761 1366.97 53.108C1367.13 53.5398 1367.36 53.8845 1367.67 54.142C1367.98 54.3958 1368.38 54.5227 1368.85 54.5227ZM1368.05 46.125L1369.32 43.5284H1371.33L1369.59 46.125H1368.05ZM1376.12 47.2727L1377.88 50.4943L1379.67 47.2727H1381.85L1379.22 51.6364L1381.89 56H1379.73L1377.88 52.858L1376.05 56H1373.87L1376.53 51.6364L1373.94 47.2727H1376.12ZM1383.44 56V47.2727H1385.5V56H1383.44ZM1384.47 46.0341C1384.15 46.0341 1383.87 45.9261 1383.63 45.7102C1383.4 45.4905 1383.28 45.2273 1383.28 44.9205C1383.28 44.6098 1383.4 44.3466 1383.63 44.1307C1383.87 43.911 1384.15 43.8011 1384.47 43.8011C1384.8 43.8011 1385.08 43.911 1385.31 44.1307C1385.55 44.3466 1385.67 44.6098 1385.67 44.9205C1385.67 45.2273 1385.55 45.4905 1385.31 45.7102C1385.08 45.9261 1384.8 46.0341 1384.47 46.0341ZM1387.61 56V47.2727H1389.58V48.7557H1389.68C1389.86 48.2557 1390.16 47.8655 1390.58 47.5852C1391 47.3011 1391.51 47.1591 1392.09 47.1591C1392.68 47.1591 1393.18 47.303 1393.58 47.5909C1393.99 47.875 1394.28 48.2633 1394.45 48.7557H1394.54C1394.73 48.2708 1395.06 47.8845 1395.51 47.5966C1395.98 47.3049 1396.52 47.1591 1397.16 47.1591C1397.96 47.1591 1398.62 47.4129 1399.12 47.9205C1399.63 48.428 1399.88 49.1686 1399.88 50.142V56H1397.82V50.4602C1397.82 49.9186 1397.68 49.5227 1397.39 49.2727C1397.1 49.0189 1396.75 48.892 1396.33 48.892C1395.84 48.892 1395.45 49.0473 1395.17 49.358C1394.89 49.6648 1394.75 50.0644 1394.75 50.5568V56H1392.74V50.375C1392.74 49.9242 1392.6 49.5644 1392.33 49.2955C1392.06 49.0265 1391.71 48.892 1391.27 48.892C1390.98 48.892 1390.71 48.9678 1390.46 49.1193C1390.22 49.267 1390.03 49.4773 1389.88 49.75C1389.74 50.0189 1389.67 50.3333 1389.67 50.6932V56H1387.61ZM1404.48 56.1761C1403.93 56.1761 1403.43 56.0777 1402.99 55.8807C1402.55 55.6799 1402.2 55.3845 1401.94 54.9943C1401.69 54.6042 1401.56 54.1231 1401.56 53.5511C1401.56 53.0587 1401.65 52.6515 1401.83 52.3295C1402.02 52.0076 1402.26 51.75 1402.58 51.5568C1402.89 51.3636 1403.25 51.2178 1403.64 51.1193C1404.04 51.017 1404.45 50.9432 1404.87 50.8977C1405.39 50.8447 1405.8 50.7973 1406.12 50.7557C1406.44 50.7102 1406.67 50.642 1406.81 50.5511C1406.96 50.4564 1407.03 50.3106 1407.03 50.1136V50.0795C1407.03 49.6515 1406.91 49.3201 1406.65 49.0852C1406.4 48.8504 1406.03 48.733 1405.56 48.733C1405.05 48.733 1404.65 48.8428 1404.36 49.0625C1404.07 49.2822 1403.87 49.5417 1403.77 49.8409L1401.85 49.5682C1402 49.0379 1402.25 48.5947 1402.6 48.2386C1402.94 47.8788 1403.37 47.6098 1403.87 47.4318C1404.38 47.25 1404.93 47.1591 1405.54 47.1591C1405.97 47.1591 1406.38 47.2083 1406.8 47.3068C1407.22 47.4053 1407.6 47.5682 1407.94 47.7955C1408.29 48.0189 1408.56 48.3239 1408.77 48.7102C1408.98 49.0966 1409.09 49.5795 1409.09 50.1591V56H1407.11V54.8011H1407.04C1406.92 55.0436 1406.74 55.2708 1406.52 55.483C1406.29 55.6913 1406.01 55.8598 1405.67 55.9886C1405.33 56.1136 1404.94 56.1761 1404.48 56.1761ZM1405.02 54.6648C1405.43 54.6648 1405.79 54.5833 1406.09 54.4205C1406.39 54.2538 1406.63 54.0341 1406.79 53.7614C1406.96 53.4886 1407.04 53.1913 1407.04 52.8693V51.8409C1406.97 51.8939 1406.86 51.9432 1406.71 51.9886C1406.56 52.0341 1406.39 52.0739 1406.2 52.108C1406.01 52.142 1405.82 52.1723 1405.64 52.1989C1405.45 52.2254 1405.29 52.2481 1405.15 52.267C1404.85 52.3087 1404.57 52.3769 1404.33 52.4716C1404.09 52.5663 1403.9 52.6989 1403.75 52.8693C1403.61 53.036 1403.54 53.2519 1403.54 53.517C1403.54 53.8958 1403.68 54.1818 1403.96 54.375C1404.24 54.5682 1404.59 54.6648 1405.02 54.6648ZM1419.49 47.2727V48.8636H1414.47V47.2727H1419.49ZM1415.71 45.1818H1417.76V53.375C1417.76 53.6515 1417.81 53.8636 1417.89 54.0114C1417.98 54.1553 1418.09 54.2538 1418.23 54.3068C1418.37 54.3598 1418.52 54.3864 1418.7 54.3864C1418.82 54.3864 1418.94 54.3769 1419.05 54.358C1419.16 54.339 1419.24 54.322 1419.3 54.3068L1419.64 55.9148C1419.53 55.9527 1419.38 55.9943 1419.17 56.0398C1418.97 56.0852 1418.73 56.1117 1418.43 56.1193C1417.92 56.1345 1417.45 56.0568 1417.04 55.8864C1416.63 55.7121 1416.3 55.4432 1416.06 55.0795C1415.82 54.7159 1415.7 54.2614 1415.71 53.7159V45.1818ZM1426.77 52.3295V47.2727H1428.82V56H1426.83V54.4489H1426.74C1426.54 54.9375 1426.22 55.3371 1425.77 55.6477C1425.32 55.9583 1424.77 56.1136 1424.11 56.1136C1423.54 56.1136 1423.04 55.9867 1422.6 55.733C1422.16 55.4754 1421.82 55.1023 1421.57 54.6136C1421.33 54.1212 1421.21 53.5265 1421.21 52.8295V47.2727H1423.26V52.5114C1423.26 53.0644 1423.41 53.5038 1423.72 53.8295C1424.02 54.1553 1424.42 54.3182 1424.91 54.3182C1425.21 54.3182 1425.51 54.2443 1425.79 54.0966C1426.07 53.9489 1426.31 53.7292 1426.49 53.4375C1426.67 53.142 1426.77 52.7727 1426.77 52.3295ZM1430.94 56V47.2727H1432.93V48.7273H1433.02C1433.18 48.2235 1433.46 47.8352 1433.84 47.5625C1434.23 47.286 1434.68 47.1477 1435.18 47.1477C1435.29 47.1477 1435.42 47.1534 1435.56 47.1648C1435.7 47.1723 1435.82 47.1856 1435.92 47.2045V49.0966C1435.83 49.0663 1435.69 49.0398 1435.5 49.017C1435.32 48.9905 1435.14 48.9773 1434.96 48.9773C1434.59 48.9773 1434.25 49.0587 1433.95 49.2216C1433.66 49.3807 1433.42 49.6023 1433.25 49.8864C1433.08 50.1705 1433 50.4981 1433 50.8693V56H1430.94ZM1437.28 56V47.2727H1439.25V48.7557H1439.35C1439.53 48.2557 1439.83 47.8655 1440.25 47.5852C1440.68 47.3011 1441.18 47.1591 1441.76 47.1591C1442.35 47.1591 1442.85 47.303 1443.25 47.5909C1443.66 47.875 1443.95 48.2633 1444.12 48.7557H1444.21C1444.4 48.2708 1444.73 47.8845 1445.19 47.5966C1445.65 47.3049 1446.2 47.1591 1446.83 47.1591C1447.63 47.1591 1448.29 47.4129 1448.79 47.9205C1449.3 48.428 1449.56 49.1686 1449.56 50.142V56H1447.49V50.4602C1447.49 49.9186 1447.35 49.5227 1447.06 49.2727C1446.77 49.0189 1446.42 48.892 1446 48.892C1445.51 48.892 1445.12 49.0473 1444.84 49.358C1444.56 49.6648 1444.43 50.0644 1444.43 50.5568V56H1442.41V50.375C1442.41 49.9242 1442.27 49.5644 1442 49.2955C1441.73 49.0265 1441.38 48.892 1440.94 48.892C1440.65 48.892 1440.38 48.9678 1440.14 49.1193C1439.89 49.267 1439.7 49.4773 1439.56 49.75C1439.41 50.0189 1439.34 50.3333 1439.34 50.6932V56H1437.28ZM1454.15 56.1761C1453.6 56.1761 1453.1 56.0777 1452.66 55.8807C1452.22 55.6799 1451.87 55.3845 1451.61 54.9943C1451.36 54.6042 1451.23 54.1231 1451.23 53.5511C1451.23 53.0587 1451.32 52.6515 1451.51 52.3295C1451.69 52.0076 1451.94 51.75 1452.25 51.5568C1452.57 51.3636 1452.92 51.2178 1453.31 51.1193C1453.71 51.017 1454.12 50.9432 1454.55 50.8977C1455.06 50.8447 1455.47 50.7973 1455.79 50.7557C1456.11 50.7102 1456.34 50.642 1456.48 50.5511C1456.63 50.4564 1456.71 50.3106 1456.71 50.1136V50.0795C1456.71 49.6515 1456.58 49.3201 1456.32 49.0852C1456.07 48.8504 1455.71 48.733 1455.23 48.733C1454.72 48.733 1454.32 48.8428 1454.03 49.0625C1453.74 49.2822 1453.54 49.5417 1453.44 49.8409L1451.52 49.5682C1451.67 49.0379 1451.92 48.5947 1452.27 48.2386C1452.62 47.8788 1453.04 47.6098 1453.55 47.4318C1454.05 47.25 1454.61 47.1591 1455.22 47.1591C1455.64 47.1591 1456.06 47.2083 1456.47 47.3068C1456.89 47.4053 1457.27 47.5682 1457.61 47.7955C1457.96 48.0189 1458.24 48.3239 1458.44 48.7102C1458.66 49.0966 1458.76 49.5795 1458.76 50.1591V56H1456.78V54.8011H1456.72C1456.59 55.0436 1456.42 55.2708 1456.19 55.483C1455.96 55.6913 1455.68 55.8598 1455.34 55.9886C1455 56.1136 1454.61 56.1761 1454.15 56.1761ZM1454.69 54.6648C1455.1 54.6648 1455.46 54.5833 1455.76 54.4205C1456.07 54.2538 1456.3 54.0341 1456.46 53.7614C1456.63 53.4886 1456.71 53.1913 1456.71 52.8693V51.8409C1456.65 51.8939 1456.54 51.9432 1456.38 51.9886C1456.23 52.0341 1456.06 52.0739 1455.87 52.108C1455.68 52.142 1455.49 52.1723 1455.31 52.1989C1455.12 52.2254 1454.96 52.2481 1454.82 52.267C1454.52 52.3087 1454.24 52.3769 1454 52.4716C1453.76 52.5663 1453.57 52.6989 1453.43 52.8693C1453.29 53.036 1453.22 53.2519 1453.22 53.517C1453.22 53.8958 1453.35 54.1818 1453.63 54.375C1453.91 54.5682 1454.26 54.6648 1454.69 54.6648Z" fill="#F8F9FA"/>
</svg>
